<svg version="1.1" xmlns="http://www.w3.org/2000/svg" width="991" height="988">
<path d="M0 0 C327.03 0 654.06 0 991 0 C991 326.04 991 652.08 991 988 C663.97 988 336.94 988 0 988 C0 661.96 0 335.92 0 0 Z " fill="#71A79F" transform="translate(0,0)" data-index="0" style="opacity: 1;"></path>
<path d="M0 0 C327.03 0 654.06 0 991 0 C991 326.04 991 652.08 991 988 C663.97 988 336.94 988 0 988 C0 661.96 0 335.92 0 0 Z M139 36 C139 82.86 139 129.72 139 178 C106.66 178 74.32 178 41 178 C41 188.89 41 199.78 41 211 C73.34 211 105.68 211 139 211 C139 300.76 139 390.52 139 483 C106.99 483 74.98 483 42 483 C42 493.89 42 504.78 42 516 C74.01 516 106.02 516 139 516 C139 598.83 139 681.66 139 767 C106.66 767 74.32 767 41 767 C41 778.22 41 789.44 41 801 C73.34 801 105.68 801 139 801 C139 847.53 139 894.06 139 942 C149.89 942 160.78 942 172 942 C172 895.47 172 848.94 172 801 C389.14 801 606.28 801 830 801 C830 847.53 830 894.06 830 942 C840.89 942 851.78 942 863 942 C863 895.47 863 848.94 863 801 C895.34 801 927.68 801 961 801 C961 789.78 961 778.56 961 767 C928.99 767 896.98 767 864 767 C864 684.17 864 601.34 864 516 C896.01 516 928.02 516 961 516 C961 505.11 961 494.22 961 483 C928.99 483 896.98 483 864 483 C864 393.57 864 304.14 864 212 C896.34 212 928.68 212 962 212 C962 200.45 962 188.9 962 177 C929.66 177 897.32 177 864 177 C864 130.47 864 83.94 864 36 C852.78 36 841.56 36 830 36 C830 82.86 830 129.72 830 178 C612.86 178 395.72 178 172 178 C172 131.14 172 84.28 172 36 C161.11 36 150.22 36 139 36 Z " fill="#FEFEFE" transform="translate(0,0)" data-index="1" style="opacity: 1;"></path>
<path d="M0 0 C10.89 0 21.78 0 33 0 C33 46.86 33 93.72 33 142 C250.14 142 467.28 142 691 142 C691 95.14 691 48.28 691 0 C702.22 0 713.44 0 725 0 C725 46.53 725 93.06 725 141 C757.34 141 789.68 141 823 141 C823 152.55 823 164.1 823 176 C790.66 176 758.32 176 725 176 C725 265.43 725 354.86 725 447 C757.01 447 789.02 447 822 447 C822 457.89 822 468.78 822 480 C789.99 480 757.98 480 725 480 C725 562.83 725 645.66 725 731 C757.01 731 789.02 731 822 731 C822 742.22 822 753.44 822 765 C789.66 765 757.32 765 724 765 C724 811.53 724 858.06 724 906 C713.11 906 702.22 906 691 906 C691 859.47 691 812.94 691 765 C473.86 765 256.72 765 33 765 C33 811.53 33 858.06 33 906 C22.11 906 11.22 906 0 906 C0 859.47 0 812.94 0 765 C-32.34 765 -64.68 765 -98 765 C-98 753.78 -98 742.56 -98 731 C-65.66 731 -33.32 731 0 731 C0 648.17 0 565.34 0 480 C-32.01 480 -64.02 480 -97 480 C-97 469.11 -97 458.22 -97 447 C-64.99 447 -32.98 447 0 447 C0 357.24 0 267.48 0 175 C-32.34 175 -64.68 175 -98 175 C-98 164.11 -98 153.22 -98 142 C-65.66 142 -33.32 142 0 142 C0 95.14 0 48.28 0 0 Z M33 175 C33 264.76 33 354.52 33 447 C45.87 447 58.74 447 72 447 C72 380.34 72 313.68 72 245 C83.22 245 94.44 245 106 245 C106 382.28 106 519.56 106 661 C154.33776166 665.69090208 154.33776166 665.69090208 202.6875 670.25 C205.32748689 670.49465219 207.96746073 670.73944518 210.60742188 670.984375 C211.896147 671.10389526 213.18487213 671.22341553 214.51264954 671.34655762 C218.17400641 671.68907283 221.83444539 672.04029349 225.49487305 672.39257812 C229.48396821 672.77442833 233.47102188 673.1175086 237.46801758 673.40429688 C248.31780842 674.23902947 257.31250989 676.78596408 267.3125 681 C268.82551186 681.61526045 270.33963005 682.22780596 271.85473633 682.83789062 C275.13032176 684.15925822 278.40092557 685.49206782 281.66894531 686.83203125 C290.46492457 690.4249115 299.32229526 693.86366431 308.17245483 697.3203125 C311.10880565 698.4692095 314.04260161 699.62440808 316.97583008 700.78125 C327.90944459 705.08316333 338.88717647 709.1839018 350 713 C343.18390153 713.09599 336.47353844 712.83119622 329.68188477 712.26904297 C328.20482685 712.15163521 328.20482685 712.15163521 326.69792938 712.03185558 C323.44544225 711.77238257 320.19343874 711.50729291 316.94140625 711.2421875 C314.62717966 711.05648757 312.31292421 710.87114701 309.99864197 710.68614197 C303.80350131 710.18991849 297.60875994 709.68886983 291.41409302 709.18677139 C284.96246419 708.66453727 278.51051775 708.14625806 272.05859375 707.62768555 C264.29981815 707.00384898 256.54107739 706.37959311 248.78250122 705.75328064 C235.05522603 704.6454023 221.32732193 703.54673905 207.59746361 702.47133255 C200.56481591 701.92042337 193.53236689 701.36698121 186.5 700.8125 C185.76370487 700.75447708 185.02740974 700.69645416 184.26880264 700.63667297 C167.3404009 699.30106655 150.42279589 697.88409266 133.515625 696.30078125 C132.75945892 696.230105 132.00329285 696.15942875 131.22421265 696.08661079 C124.01060447 695.41168774 116.79773421 694.73030158 109.58736038 694.02159023 C107.63396972 693.83037372 105.68023719 693.64265993 103.72650146 693.45500183 C101.38237585 693.22984143 99.03875548 692.99931006 96.69586182 692.76167297 C88.35022287 691.9674064 80.49139116 692 72 692 C72 622.04 72 552.08 72 480 C59.13 480 46.26 480 33 480 C33 562.83 33 645.66 33 731 C250.14 731 467.28 731 691 731 C691 648.17 691 565.34 691 480 C678.13 480 665.26 480 652 480 C652 549.96 652 619.92 652 692 C647.05 692 642.1 692 637 692 C633.93180188 692.14266777 630.89737477 692.30656993 627.83984375 692.55078125 C627.05557007 692.6091214 626.27129639 692.66746155 625.46325684 692.72756958 C622.95415355 692.91636794 620.44584632 693.11391722 617.9375 693.3125 C616.15177873 693.45001147 614.36605274 693.58746169 612.58032227 693.72485352 C601.35280708 694.60007331 590.15078068 695.63188469 578.94995117 696.80175781 C554.09057448 699.37084221 529.15542407 701.35056281 504.23388672 703.21118164 C487.79759447 704.44971545 471.37511292 705.87174433 454.95007324 707.25003052 C449.9778666 707.66722779 445.005553 708.08304882 440.03295898 708.49560547 C429.87091074 709.33891133 419.70996939 710.19316713 409.55078125 711.0703125 C407.50976674 711.24610667 405.46875112 711.42188798 403.42773438 711.59765625 C400.33153113 711.86434342 397.23539234 712.13170398 394.1394043 712.40087891 C391.06836111 712.66763773 387.99709751 712.93171884 384.92578125 713.1953125 C383.99880936 713.27653351 383.07183746 713.35775452 382.11677551 713.44143677 C378.06643903 713.7869416 374.06981601 714.10889493 370 714 C370.70866211 713.75580322 371.41732422 713.51160645 372.14746094 713.26000977 C389.33133772 707.3114311 406.35909037 701.014413 423.3125 694.4375 C424.25675842 694.07148682 425.20101685 693.70547363 426.17388916 693.32836914 C434.56799768 690.07304418 442.95833739 686.80830288 451.33457947 683.50724792 C453.16763098 682.78562558 455.00212298 682.06766559 456.83666992 681.34985352 C458.93214382 680.52949314 461.02506069 679.70254923 463.11450195 678.86694336 C479.0421469 672.64281471 496.58380315 671.84297855 513.48828125 670.4140625 C515.15987686 670.26991932 516.83144086 670.12540919 518.50297546 669.9805603 C522.89067135 669.60106672 527.27868335 669.22537804 531.66680908 668.85089111 C538.58643024 668.26008857 545.50565812 667.66476238 552.42467308 667.06690598 C554.75931345 666.86589525 557.0941494 666.66732745 559.42903137 666.46914673 C578.96717875 664.78783848 598.47554682 662.85947173 618 661 C618 523.72 618 386.44 618 245 C629.22 245 640.44 245 652 245 C652 311.66 652 378.32 652 447 C664.87 447 677.74 447 691 447 C691 357.24 691 267.48 691 175 C473.86 175 256.72 175 33 175 Z " fill="#80AF7A" transform="translate(139,36)" data-index="2"></path>
<path d="M0 0 C217.14 0 434.28 0 658 0 C658 89.76 658 179.52 658 272 C645.13 272 632.26 272 619 272 C619 205.34 619 138.68 619 70 C607.78 70 596.56 70 585 70 C585 207.28 585 344.56 585 486 C511.65158371 492.87641403 511.65158371 492.87641403 488.5 494.8125 C484.87509947 495.11733669 481.25028033 495.42307015 477.62561035 495.7306366 C475.45314428 495.91485719 473.28054885 496.09756282 471.10778809 496.27827454 C465.7173208 496.73403339 460.36545484 497.31233408 455 498 C453.3342531 498.05915294 451.66659344 498.08854052 450 498.0625 C449.236875 498.05347656 448.47375 498.04445313 447.6875 498.03515625 C446.8521875 498.01775391 446.8521875 498.01775391 446 498 C449.75105362 494.68137348 454.05774927 493.3117672 458.6875 491.625 C460.60358366 490.91078032 462.51889811 490.19449492 464.43359375 489.4765625 C465.48530762 489.08243164 466.53702148 488.68830078 467.62060547 488.28222656 C473.16960461 486.1767979 478.68714316 483.99230399 484.20574951 481.80880737 C487.71311985 480.42111687 491.22175302 479.03662833 494.73046875 477.65234375 C495.46328064 477.36321609 496.19609253 477.07408844 496.95111084 476.77619934 C505.58818446 473.37062703 514.23394676 469.98730661 522.88195801 466.60961914 C524.64001323 465.92285755 526.39791262 465.23569687 528.15563965 464.5480957 C530.64628984 463.57390544 533.1375221 462.60121775 535.62890625 461.62890625 C536.3383992 461.3511586 537.04789215 461.07341095 537.77888489 460.7872467 C545.49196467 457.78127302 553.24653948 454.9075477 561 452 C561.495 231.725 561.495 231.725 562 7 C531.51396416 19.62543784 531.51396416 19.62543784 501.10546875 32.421875 C493.41988684 35.67694498 485.70264515 38.8548244 477.98681641 42.03735352 C467.93596195 46.18623343 457.90728019 50.38712651 447.8805542 54.59393311 C432.75832161 60.93832382 417.61673337 67.23066461 402.4375 73.4375 C386.38677505 80.00161803 370.40178037 86.70641143 354.45263672 93.51416016 C350.84440625 95.05342255 347.23472617 96.5892492 343.625 98.125 C341.96440552 98.83619995 341.96440552 98.83619995 340.27026367 99.56176758 C339.24521729 99.9977124 338.2201709 100.43365723 337.1640625 100.8828125 C336.26123535 101.26840332 335.3584082 101.65399414 334.42822266 102.05126953 C328.8415819 104.23402501 328.8415819 104.23402501 325.97224426 103.43612671 C325.25541977 103.11350861 324.53859528 102.7908905 323.80004883 102.45849609 C322.98050217 102.09752838 322.16095551 101.73656067 321.3165741 101.36465454 C320.43479996 100.96330292 319.55302582 100.56195129 318.64453125 100.1484375 C316.74211845 99.30731938 314.83927206 98.4671814 312.93603516 97.62792969 C311.95475647 97.19154175 310.97347778 96.75515381 309.96246338 96.30554199 C305.27491585 94.23976451 300.55068438 92.26378201 295.82421875 90.2890625 C293.96939981 89.51172169 292.1145821 88.73437794 290.25976562 87.95703125 C289.34364502 87.57369629 288.42752441 87.19036133 287.48364258 86.79541016 C284.64266007 85.60623089 281.80276227 84.41448555 278.96289062 83.22265625 C277.12506442 82.45297117 275.28717616 81.68343424 273.44921875 80.9140625 C272.61581467 80.56405182 271.78241058 80.21404114 270.92375183 79.85342407 C269.73499199 79.3567775 269.73499199 79.3567775 268.5222168 78.85009766 C267.83943161 78.56413727 267.15664642 78.27817688 266.45317078 77.98355103 C262.99215207 76.59592301 259.49141093 75.3092791 256 74 C255.67 85.88 255.34 97.76 255 110 C258.3 110.99 261.6 111.98 265 113 C267.1205178 113.81135666 269.22763274 114.65958104 271.3125 115.55859375 C272.40820312 116.02716797 273.50390625 116.49574219 274.6328125 116.97851562 C275.74398438 117.45998047 276.85515625 117.94144531 278 118.4375 C280.228769 119.39545698 282.4579303 120.3525018 284.6875 121.30859375 C285.76128906 121.76991699 286.83507812 122.23124023 287.94140625 122.70654297 C290.65611571 123.85457384 293.38209428 124.95673498 296.125 126.03515625 C301.48460241 128.19531652 306.73940256 130.60881934 312 133 C312 254.11 312 375.22 312 500 C306.93829512 499.15638252 302.77327257 497.90571501 298.0859375 496.0078125 C297.32717316 495.70622726 296.56840881 495.40464203 295.78665161 495.09391785 C293.31388763 494.10972919 290.84449073 493.11736964 288.375 492.125 C286.65064089 491.43711644 284.92602897 490.74986633 283.20117188 490.06323242 C279.74224827 488.68587479 276.28435049 487.30598905 272.82714844 485.92431641 C266.3964434 483.35712232 259.9486149 480.83433883 253.5 478.3125 C244.02746312 474.59782007 234.57093638 470.84419169 225.125 467.0625 C224.49998596 466.81229095 223.87497192 466.56208191 223.23101807 466.30429077 C216.38629911 463.56351456 209.54394985 460.81688835 202.703125 458.06640625 C185.87519014 451.30782049 168.99789322 444.68432084 152.08984375 438.12890625 C151.40092041 437.8616272 150.71199707 437.59434814 150.00219727 437.31896973 C146.7022342 436.04029816 143.39961203 434.76951541 140.09033203 433.51513672 C138.90681152 433.06541504 137.72329102 432.61569336 136.50390625 432.15234375 C135.46177979 431.75909912 134.41965332 431.36585449 133.34594727 430.96069336 C131 430 131 430 130 429 C129.90222502 427.02442285 129.8762873 425.04528539 129.87695217 423.06729031 C129.87496112 421.7694761 129.87297007 420.4716619 129.87091869 419.13451999 C129.87377229 417.67540878 129.8767179 416.21629775 129.87974548 414.75718689 C129.87930992 413.22189792 129.87843528 411.68660902 129.87715632 410.15132052 C129.8749085 405.91218501 129.87893653 401.67307452 129.88393438 397.4339422 C129.88823461 392.87018162 129.88679276 388.30642256 129.8860321 383.74266052 C129.8855066 375.82889913 129.88865619 367.91514596 129.89426994 360.00138664 C129.90238133 348.55928074 129.90499979 337.11717882 129.90625793 325.67507035 C129.90844902 307.1130492 129.91511065 288.55103244 129.92456055 269.98901367 C129.93373319 251.95288108 129.94081475 233.91674968 129.94506836 215.88061523 C129.94533108 214.7697156 129.94559381 213.65881597 129.94586449 212.51425271 C129.94716949 206.94144885 129.9484332 201.36864498 129.94967639 195.7958411 C129.96005078 149.53055769 129.97767064 103.26527907 130 57 C133.69571938 57.6948018 136.88783765 58.66555818 140.3515625 60.14453125 C141.36863281 60.57443359 142.38570312 61.00433594 143.43359375 61.44726562 C144.48675781 61.89779297 145.53992188 62.34832031 146.625 62.8125 C153.50535122 65.74461463 160.37038456 68.57479682 167.44287109 71.0144043 C170.37892717 72.14605012 173.18560165 73.59280083 176 75 C175.67 63.12 175.34 51.24 175 39 C169.740625 36.9271875 169.740625 36.9271875 164.375 34.8125 C153.74767153 30.59076261 143.24847913 26.11993362 132.77325439 21.53762817 C123.09045676 17.30410129 113.35405642 13.24895928 103.515625 9.390625 C101.65229429 8.65357419 99.79226008 7.89613004 98 7 C97.67 154.18 97.34 301.36 97 453 C99.97 453.66 102.94 454.32 106 455 C107.79090372 455.62119224 109.56513713 456.29503632 111.30859375 457.0390625 C112.28094971 457.44632568 113.25330566 457.85358887 114.25512695 458.27319336 C115.30531006 458.71928955 116.35549316 459.16538574 117.4375 459.625 C129.47413752 464.63665371 141.61702723 469.32704643 153.8125 473.9375 C166.6455536 478.79474829 179.45309116 483.70154557 192.1875 488.8125 C193.39704346 489.29775146 194.60658691 489.78300293 195.8527832 490.28295898 C201.26167405 492.46332648 206.65333902 494.67099138 212 497 C212 497.33 212 497.66 212 498 C203.22552745 498.14256292 194.6401368 497.76060345 185.91015625 496.8984375 C184.65504745 496.77949127 183.39993866 496.66054504 182.10679626 496.53799438 C178.75517067 496.21917208 175.40413995 495.89510492 172.05328369 495.56835938 C168.89076236 495.26119233 165.72758009 494.96101339 162.56445312 494.66015625 C153.37551925 493.78158694 144.18783078 492.89003105 135 492 C114.54 490.02 94.08 488.04 73 486 C73 348.72 73 211.44 73 70 C61.78 70 50.56 70 39 70 C39 136.66 39 203.32 39 272 C26.13 272 13.26 272 0 272 C0 182.24 0 92.48 0 0 Z " fill="#FCFEFD" transform="translate(172,211)" data-index="3" style="opacity: 1;"></path>
<path d="M0 0 C10.89 0 21.78 0 33 0 C33 147.51 33 295.02 33 447 C45.87 447 58.74 447 72 447 C72 380.34 72 313.68 72 245 C83.22 245 94.44 245 106 245 C106 382.28 106 519.56 106 661 C109.3 661 112.6 661 116 661 C119.08521818 661.21390072 122.14567556 661.45935112 125.22119141 661.76269531 C126.08498917 661.84405228 126.94878693 661.92540924 127.83876038 662.00923157 C130.67681042 662.27768874 133.51416794 662.55283314 136.3515625 662.828125 C138.37133178 663.02070924 140.39113854 663.21290074 142.41098022 663.40472412 C147.73889573 663.91189134 153.06623895 664.42484851 158.39349365 664.93890381 C164.70448875 665.5464615 171.01627134 666.14578622 177.32789803 666.74674034 C182.5104564 667.24107348 187.69251484 667.73991572 192.87374878 668.24795532 C194.92347436 668.44875006 196.97320779 668.6494647 199.02294922 668.85009766 C200.02564283 668.94825586 201.02833645 669.04641407 202.06141472 669.14754677 C207.90658457 669.71484841 213.75348683 670.24516165 219.60537529 670.73828125 C223.21899096 671.04463858 226.83103728 671.36753119 230.44303513 671.69234467 C232.09560485 671.83652222 233.74887442 671.97295966 235.40282059 672.10037994 C247.26288935 673.01693664 257.58418323 675.70492944 268.625 680.125 C269.97088699 680.66133057 269.97088699 680.66133057 271.34396362 681.20849609 C273.38321766 682.05718181 275.39797785 682.94474123 277.41015625 683.85546875 C287.50399793 688.29217151 297.76280247 692.27794642 308.04144287 696.2633667 C310.96551009 697.39980489 313.88594999 698.54503725 316.80517578 699.69384766 C328.48189215 704.2843339 340.20798374 708.71439092 352 713 C352 713.33 352 713.66 352 714 C340.20451706 714.40328991 328.489386 713.20412663 316.74609375 712.2421875 C314.43473139 712.05641652 312.12333424 711.87107788 309.81190491 711.68614197 C303.63317483 711.19061749 297.45492674 710.68931272 291.27676392 710.18677139 C284.83840803 709.66393805 278.39965908 709.14599257 271.9609375 708.62768555 C264.21750497 708.00406125 256.47411568 707.37992028 248.73092651 706.75328064 C234.19823925 705.57740709 219.66458893 704.41557119 205.12890625 703.27734375 C172.5967285 700.72557467 140.08987618 698.001048 107.60351562 694.9152832 C106.32410095 694.79420197 105.04468628 694.67312073 103.72650146 694.54837036 C101.38275717 694.32597765 99.03918915 694.10171349 96.69586182 693.87496948 C88.4636258 693.09208145 80.26120683 692.55074712 72 692 C72 622.04 72 552.08 72 480 C59.13 480 46.26 480 33 480 C33 562.83 33 645.66 33 731 C250.14 731 467.28 731 691 731 C691 742.22 691 753.44 691 765 C473.86 765 256.72 765 33 765 C33 811.53 33 858.06 33 906 C22.11 906 11.22 906 0 906 C0 859.47 0 812.94 0 765 C-32.34 765 -64.68 765 -98 765 C-98 753.78 -98 742.56 -98 731 C-65.66 731 -33.32 731 0 731 C0 648.17 0 565.34 0 480 C-32.01 480 -64.02 480 -97 480 C-97 469.11 -97 458.22 -97 447 C-64.99 447 -32.98 447 0 447 C0 357.24 0 267.48 0 175 C-32.34 175 -64.68 175 -98 175 C-98 164.11 -98 153.22 -98 142 C-65.66 142 -33.32 142 0 142 C0 95.14 0 48.28 0 0 Z " fill="#45809C" transform="translate(139,36)" data-index="4" style="opacity: 1;"></path>
<path d="M0 0 C0 122.76 0 245.52 0 372 C-13.49898717 377.62457799 -13.49898717 377.62457799 -19.3828125 379.97265625 C-20.00799774 380.22244736 -20.63318298 380.47223846 -21.27731323 380.729599 C-23.22621113 381.50806496 -25.17558882 382.28532043 -27.125 383.0625 C-28.43102261 383.58390166 -29.73701231 384.10538575 -31.04296875 384.62695312 C-33.4622004 385.59303763 -35.88165144 386.55856473 -38.30126953 387.52368164 C-40.3138709 388.3269952 -42.32627452 389.13080797 -44.33764648 389.93719482 C-50.02247756 392.21567402 -55.71747404 394.46631919 -61.421875 396.6953125 C-62.30342255 397.04014679 -63.18497009 397.38498108 -64.0932312 397.74026489 C-66.97867913 398.86887255 -69.86433614 399.99694456 -72.75 401.125 C-74.79347124 401.92411732 -76.836928 402.72327165 -78.88037109 403.52246094 C-82.05587122 404.76439151 -85.23138297 406.00629227 -88.4069519 407.24804688 C-96.58184857 410.44481348 -104.75558987 413.64452331 -112.92887878 416.84539795 C-120.5436357 419.82729932 -128.15994603 422.80521575 -135.77668762 425.78204346 C-141.23606437 427.91653662 -146.69275127 430.0577338 -152.14727783 432.20458984 C-155.53225433 433.53605518 -158.91876035 434.86359749 -162.30560303 436.19030762 C-163.87894917 436.80771243 -165.45159653 437.42690128 -167.02349854 438.04797363 C-169.16362939 438.89336443 -171.30608485 439.73257 -173.44921875 440.5703125 C-174.64893311 441.04227051 -175.84864746 441.51422852 -177.0847168 442.00048828 C-180 443 -180 443 -183 443 C-183 321.89 -183 200.78 -183 76 C-171.75329751 70.37664875 -171.75329751 70.37664875 -166.75390625 68.30078125 C-165.036875 67.58438477 -165.036875 67.58438477 -163.28515625 66.85351562 C-162.04427821 66.33982593 -160.80339253 65.82615469 -159.5625 65.3125 C-158.22640577 64.75623568 -156.89047346 64.19958231 -155.5546875 63.64257812 C-152.63098684 62.42380757 -149.70657307 61.20676885 -146.78173828 59.99072266 C-138.93934653 56.72813294 -131.10651692 53.44264717 -123.27209473 50.16098022 C-119.57591276 48.61298328 -115.87930219 47.06601122 -112.18270874 45.51899719 C-101.591866 41.08660695 -91.00398017 36.6472026 -80.4173584 32.20474243 C-71.04812774 28.2735421 -61.67274715 24.35737485 -52.29052734 20.45727539 C-47.88928832 18.62648898 -43.49153926 16.78874367 -39.10546875 14.921875 C-30.26276913 11.15962831 -21.37951076 7.52067855 -12.4375 4 C-10.92724243 3.40239868 -10.92724243 3.40239868 -9.38647461 2.79272461 C-7.98667358 2.24563843 -7.98667358 2.24563843 -6.55859375 1.6875 C-5.72642334 1.36136719 -4.89425293 1.03523438 -4.03686523 0.69921875 C-2 0 -2 0 0 0 Z " fill="#FEFEFE" transform="translate(701,268)" data-index="5" style="opacity: 1;"></path>
<path d="M0 0 C12.87 0 25.74 0 39 0 C39 69.96 39 139.92 39 212 C43.95 212 48.9 212 54 212 C58.58731915 212.32096835 63.13788163 212.69173625 67.7109375 213.14453125 C69.0611101 213.27205479 70.41136417 213.39871807 71.76168823 213.52462769 C74.72068553 213.80117675 77.67935274 214.0809389 80.63781738 214.36312866 C89.17555925 215.17543534 97.71639855 215.95394986 106.2578125 216.7265625 C107.2122374 216.81294416 108.16666229 216.89932583 109.15000916 216.98832512 C139.41243469 219.71732838 169.70546649 222.09176355 199.99415684 224.50755262 C202.23170468 224.68604059 204.4692436 224.86463986 206.70677948 225.04327774 C216.06842839 225.79065526 225.43016833 226.5368846 234.79198599 227.28214526 C236.88024895 227.44839271 238.96850795 227.61468983 241.05676651 227.78099251 C254.19117991 228.82684731 267.32573287 229.87072938 280.46165848 230.89745235 C285.18123793 231.26668205 289.90062568 231.63832456 294.61998749 232.01032448 C296.79817802 232.18131811 298.97646544 232.35108256 301.15485382 232.51953697 C304.10966573 232.7480535 307.0641329 232.98061355 310.01855469 233.21411133 C310.87940926 233.27955706 311.74026382 233.34500278 312.6272049 233.41243172 C313.80932178 233.50705602 313.80932178 233.50705602 315.01531982 233.60359192 C315.69335033 233.65640729 316.37138084 233.70922266 317.06995773 233.7636385 C319.1067804 234.0130768 321.01270349 234.49660248 323 235 C331.30162288 235.46457538 339.45292695 234.65027352 347.6875 233.6875 C359.63105909 232.37066004 371.57603033 231.39568362 383.5625 230.5625 C398.29019521 229.53577638 412.98846214 228.31462159 427.6875 226.9375 C439.80706925 225.8029571 451.91130512 224.73791998 464.0625 224 C477.98957977 223.15045591 491.86238013 221.85496663 505.7512207 220.53344727 C507.59325762 220.35819256 509.43529861 220.18298077 511.27734375 220.0078125 C512.18448624 219.9215007 513.09162872 219.8351889 514.02626038 219.7462616 C522.76277248 218.91939095 531.50520218 218.17064048 540.25 217.4375 C550.73522142 216.55781022 561.21033676 215.60971975 571.68127441 214.57342529 C587.57528263 213.00143196 602.97517983 212 619 212 C619 142.04 619 72.08 619 0 C631.87 0 644.74 0 658 0 C658 82.83 658 165.66 658 251 C440.86 251 223.72 251 0 251 C0 168.17 0 85.34 0 0 Z " fill="#FCFEFD" transform="translate(172,516)" data-index="6" style="opacity: 1;"></path>
<path d="M0 0 C10.89 0 21.78 0 33 0 C33 147.51 33 295.02 33 447 C6.27 448.98 6.27 448.98 -21 451 C-32.1027863 452.0761038 -32.1027863 452.0761038 -43.19921875 453.21484375 C-53.70334981 454.30314154 -64.22754638 455.17254124 -74.75 456.0625 C-75.78431152 456.14999512 -76.81862305 456.23749023 -77.88427734 456.32763672 C-89.84137858 457.33642908 -101.79977026 458.31778558 -113.76611328 459.21118164 C-130.20226668 460.44970499 -146.62462936 461.87156668 -163.04951477 463.25003052 C-168.02403682 463.66746688 -172.99867881 464.08334622 -177.97363281 464.49560547 C-188.09870079 465.33503268 -198.22228199 466.18846066 -208.34375 467.0703125 C-211.37970692 467.33364786 -214.4156813 467.59678104 -217.45166016 467.85986328 C-219.51262686 468.03912084 -221.5734972 468.21948916 -223.63427734 468.40087891 C-226.68300177 468.66886202 -229.73207778 468.93247998 -232.78125 469.1953125 C-233.69273804 469.27653351 -234.60422607 469.35775452 -235.54333496 469.44143677 C-240.71842168 469.88300181 -245.80601349 470.07771363 -251 470 C-248.09783668 468.06522446 -245.75325923 467.11527769 -242.47265625 465.99609375 C-240.72891724 465.39269165 -240.72891724 465.39269165 -238.94995117 464.77709961 C-238.32011322 464.56036591 -237.69027527 464.3436322 -237.04135132 464.12033081 C-222.80133488 459.20661047 -208.72929434 453.88901487 -194.6875 448.4375 C-193.74296967 448.07130554 -192.79843933 447.70511108 -191.82528687 447.32781982 C-183.43145198 444.07267627 -175.04136446 440.80818538 -166.66542053 437.50724792 C-164.83236902 436.78562558 -162.99787702 436.06766559 -161.16333008 435.34985352 C-159.06785618 434.52949314 -156.97493931 433.70254923 -154.88549805 432.86694336 C-138.86341829 426.60591193 -121.19851915 425.82391135 -104.1953125 424.37890625 C-102.50215914 424.23233238 -100.80903437 424.08542807 -99.11593628 423.93821716 C-94.6804106 423.5533417 -90.24455214 423.1724541 -85.80859375 422.79260254 C-78.80041764 422.19169224 -71.79282163 421.58403343 -64.7851181 420.97764206 C-62.20407874 420.75466357 -59.62295166 420.53272374 -57.04180908 420.3109436 C-48.82186984 419.60306068 -40.60409835 418.87804501 -32.38964844 418.10888672 C-31.62907324 418.0380421 -30.86849804 417.96719748 -30.08487511 417.89420605 C-26.53327794 417.56317812 -22.9821426 417.22828294 -19.43167114 416.88539124 C-18.18433197 416.76844406 -16.9369928 416.65149689 -15.65185547 416.53100586 C-14.57821747 416.42799667 -13.50457947 416.32498749 -12.39840698 416.21885681 C-8.27350566 415.95321389 -4.13344615 416 0 416 C0 278.72 0 141.44 0 0 Z " fill="#224657" transform="translate(757,281)" data-index="7"></path>
<path d="M0 0 C217.14 0 434.28 0 658 0 C658 10.56 658 21.12 658 32 C440.86 32 223.72 32 0 32 C0 21.44 0 10.88 0 0 Z " fill="#1E4253" transform="translate(172,768)" data-index="8"></path>
<path d="M0 0 C10.56 0 21.12 0 32 0 C32 136.95 32 273.9 32 415 C35.63 415 39.26 415 43 415 C46.12494758 415.2110645 49.22065875 415.45414458 52.3347168 415.76269531 C53.19866058 415.84405228 54.06260437 415.92540924 54.95272827 416.00923157 C57.7853882 416.27724426 60.61728034 416.55260153 63.44921875 416.828125 C65.46755476 417.02075119 67.4859324 417.21294162 69.50434875 417.40472412 C74.82407154 417.91147372 80.14316384 418.42457276 85.4621582 418.93890381 C91.76543949 419.54687869 98.06957785 420.14590363 104.37354279 420.74674034 C109.54949372 421.24096875 114.72493532 421.73977272 119.89953613 422.24795532 C121.94603696 422.44875064 123.9925457 422.64946528 126.0390625 422.85009766 C127.04022346 422.94825586 128.04138443 423.04641407 129.07288361 423.14754677 C134.91287159 423.71516139 140.75459907 424.24545824 146.601367 424.73828125 C150.21489061 425.04467332 153.82684848 425.36757074 157.43876076 425.69234467 C159.0915709 425.83652232 160.7450808 425.97295974 162.3992672 426.10037994 C174.26071419 427.01688839 184.58293868 429.70427776 195.625 434.125 C196.52225296 434.48255371 197.41950592 434.84010742 198.34394836 435.20849609 C200.38320926 436.05717872 202.39797319 436.94473912 204.41015625 437.85546875 C214.50399793 442.29217151 224.76280247 446.27794642 235.04144287 450.2633667 C237.96551009 451.39980489 240.88594999 452.54503725 243.80517578 453.69384766 C255.48189215 458.2843339 267.20798374 462.71439092 279 467 C279 467.33 279 467.66 279 468 C267.20451589 468.40328995 255.48938749 467.20412078 243.74609375 466.2421875 C241.43523495 466.05646192 239.12434135 465.87116905 236.81341553 465.6862793 C230.63492243 465.19078603 224.45691177 464.68950782 218.27898788 464.18697357 C211.83183015 463.66338925 205.38428544 463.14461581 198.93676758 462.62548828 C191.18477702 462.00105907 183.43282767 461.37613815 175.68107605 460.74874878 C161.29401588 459.58464044 146.90595723 458.43541338 132.515625 457.3125 C101.35160499 454.8763979 70.20749775 452.27715285 39.0786171 449.42368317 C36.51987619 449.18932052 33.96104049 448.95601496 31.40219116 448.72283936 C27.43107313 448.36039772 23.46037054 447.99370456 19.4899807 447.62337303 C18.03029987 447.48762779 16.57051409 447.35300586 15.1106205 447.21956825 C13.11574401 447.03680905 11.12133338 446.84898575 9.12695312 446.66088867 C8.00969849 446.55685226 6.89244385 446.45281586 5.74133301 446.34562683 C3 446 3 446 0 445 C0 298.15 0 151.3 0 0 Z " fill="#224657" transform="translate(212,282)" data-index="9" style="opacity: 1;"></path>
<path d="M0 0 C10.89 0 21.78 0 33 0 C33 82.83 33 165.66 33 251 C250.14 251 467.28 251 691 251 C691 251.33 691 251.66 691 252 C473.86 252 256.72 252 33 252 C33 262.56 33 273.12 33 284 C250.14 284 467.28 284 691 284 C691 284.33 691 284.66 691 285 C473.86 285 256.72 285 33 285 C33 331.53 33 378.06 33 426 C22.11 426 11.22 426 0 426 C0 379.47 0 332.94 0 285 C-32.34 285 -64.68 285 -98 285 C-98 273.78 -98 262.56 -98 251 C-65.66 251 -33.32 251 0 251 C0 168.17 0 85.34 0 0 Z " fill="#49819B" transform="translate(139,516)" data-index="10"></path>
<path d="M0 0 C10.89 0 21.78 0 33 0 C33 82.83 33 165.66 33 251 C65.34 251 97.68 251 131 251 C131 262.22 131 273.44 131 285 C98.66 285 66.32 285 33 285 C33 331.53 33 378.06 33 426 C22.11 426 11.22 426 0 426 C0 285.42 0 144.84 0 0 Z " fill="#7DAC81" transform="translate(830,516)" data-index="11"></path>
<path d="M0 0 C4.51346072 0.90269214 8.29038869 2.26589458 12.4609375 4.08984375 C13.16973053 4.39443008 13.87852356 4.69901642 14.60879517 5.01283264 C16.86619577 5.98316134 19.12085762 6.95962835 21.375 7.9375 C23.6220809 8.91160522 25.86976173 9.88415646 28.11978149 10.85145569 C29.51619155 11.4517927 30.91097855 12.05592478 32.30380249 12.66453552 C32.94782013 12.9414473 33.59183777 13.21835907 34.25537109 13.50366211 C34.81098724 13.74491318 35.36660339 13.98616425 35.9390564 14.23472595 C38.89939588 15.33396563 41.96366361 16.13247532 45 17 C45 80.03 45 143.06 45 208 C40.60325347 206.53441782 36.61516222 205.00634059 32.421875 203.1015625 C31.81039612 202.82533051 31.19891724 202.54909851 30.56890869 202.26449585 C28.62800205 201.38743796 26.68884647 200.50660176 24.75 199.625 C22.8253189 198.75080722 20.9002261 197.87757397 18.97393799 197.00692749 C17.2156571 196.21210671 15.45885398 195.4140192 13.70214844 194.61572266 C9.17813132 192.64131318 4.58304819 190.83321928 0 189 C0 126.63 0 64.26 0 0 Z " fill="#6EA069" transform="translate(365,258)" data-index="12" style="opacity: 1;"></path>
<path d="M0 0 C0.33 0 0.66 0 1 0 C1 46.53 1 93.06 1 141 C33.34 141 65.68 141 99 141 C99 152.55 99 164.1 99 176 C66.66 176 34.32 176 1 176 C1 265.43 1 354.86 1 447 C33.01 447 65.02 447 98 447 C98 457.89 98 468.78 98 480 C65.99 480 33.98 480 1 480 C1 562.83 1 645.66 1 731 C0.67 731 0.34 731 0 731 C0 648.17 0 565.34 0 480 C-23.76 480 -47.52 480 -72 480 C-72 549.96 -72 619.92 -72 692 C-72.33 692 -72.66 692 -73 692 C-73 544.49 -73 396.98 -73 245 C-72.67 245 -72.34 245 -72 245 C-72 311.66 -72 378.32 -72 447 C-48.24 447 -24.48 447 0 447 C0 357.24 0 267.48 0 175 C32.34 175 64.68 175 98 175 C98 164.11 98 153.22 98 142 C65.66 142 33.32 142 0 142 C0 95.14 0 48.28 0 0 Z " fill="#A6CFCB" transform="translate(863,36)" data-index="13"></path>
<path d="M0 0 C11.22 0 22.44 0 34 0 C34 137.28 34 274.56 34 416 C33.67 416 33.34 416 33 416 C33 279.05 33 142.1 33 1 C22.44 1 11.88 1 1 1 C1 147.85 1 294.7 1 446 C1.99 446.33 2.98 446.66 4 447 C2.68 447 1.36 447 0 447 C0 377.04 0 307.08 0 235 C-55.77 235 -111.54 235 -169 235 C-169 224.11 -169 213.22 -169 202 C-157.44871548 201.84195959 -145.89739007 201.69300488 -134.34582424 201.5570364 C-128.97257813 201.49348989 -123.59941471 201.42702935 -118.22631836 201.35180664 C-78.78097441 200.81158816 -39.474044 201.44402755 0 202 C0 135.34 0 68.68 0 0 Z " fill="#99C4C4" transform="translate(211,281)" data-index="14" style="opacity: 1;"></path>
<path d="M0 0 C32.34 0 64.68 0 98 0 C98 10.89 98 21.78 98 33 C65.66 33 33.32 33 0 33 C0 22.11 0 11.22 0 0 Z " fill="#83B07D" transform="translate(41,178)" data-index="15"></path>
<path d="M0 0 C32.01 0 64.02 0 97 0 C97 10.56 97 21.12 97 32 C64.99 32 32.98 32 0 32 C0 21.44 0 10.88 0 0 Z " fill="#1E4253" transform="translate(863,768)" data-index="16"></path>
<path d="M0 0 C32.01 0 64.02 0 97 0 C97 10.56 97 21.12 97 32 C64.99 32 32.98 32 0 32 C0 21.44 0 10.88 0 0 Z " fill="#1E4355" transform="translate(42,768)" data-index="17"></path>
<path d="M0 0 C10.89 0 21.78 0 33 0 C33 147.51 33 295.02 33 447 C22.44 447 11.88 447 1 447 C-0.66899334 445.33100666 -0.12320081 443.30085379 -0.13100848 441.07194141 C-0.12838146 440.35903035 -0.12575445 439.6461193 -0.12304783 438.91160488 C-0.12420167 438.15743637 -0.12535552 437.40326787 -0.12654433 436.62624577 C-0.1292181 434.06676261 -0.12468262 431.50734076 -0.12025452 428.94786072 C-0.12069006 427.10733655 -0.12156466 425.26681244 -0.12284368 423.42628866 C-0.1250919 418.34343826 -0.12106293 413.26060871 -0.11606562 408.17776096 C-0.11176596 402.70601644 -0.1132072 397.2342732 -0.1139679 391.76252747 C-0.11449344 382.27397824 -0.11134347 372.78543586 -0.10573006 363.29688835 C-0.09761916 349.57786988 -0.09500026 335.85885473 -0.09374207 322.13983411 C-0.0915509 299.88415523 -0.08489763 277.62847955 -0.07543945 255.37280273 C-0.06625975 233.74747741 -0.05917382 212.12215306 -0.05493164 190.49682617 C-0.05480011 189.83060876 -0.05466859 189.16439135 -0.05453308 188.47798553 C-0.05308377 181.12391606 -0.05169191 173.76984658 -0.05032361 166.41577709 C-0.03994898 110.94384884 -0.02225482 55.47192465 0 0 Z M2 3 C1.81364153 26.02069913 1.65070557 49.04154173 1.5 72.0625 C1.49405146 72.96795248 1.48810292 73.87340496 1.48197412 74.80629539 C0.94917747 156.17687575 0.91384855 237.54653967 0.93684149 318.91844815 C0.93750202 321.25715633 0.93814476 323.59586451 0.93878555 325.9345727 C0.94987215 365.9563881 0.97050512 405.97819381 1 446 C11.23 446 21.46 446 32 446 C32.02280703 390.73676786 32.04050681 335.47353631 32.05106533 280.21030039 C32.05231605 273.68764491 32.05361037 267.16498945 32.05493164 260.64233398 C32.05532511 258.69449904 32.05532511 258.69449904 32.05572652 256.70731389 C32.06007917 235.6745487 32.0679645 214.64178625 32.0771528 193.60902268 C32.08650058 172.03139261 32.092058 150.45376397 32.09408849 128.87613195 C32.09546138 115.55899508 32.09979933 102.24186592 32.10791647 88.92473143 C32.11319778 79.7957045 32.11480113 70.66668156 32.11350138 61.53765322 C32.11286018 56.26881468 32.113851 50.99998963 32.11920547 45.73115349 C32.12407264 40.90662284 32.1243168 36.08211476 32.12089889 31.25758307 C32.12047647 29.51315409 32.12174418 27.76872369 32.12488318 26.02429748 C32.27550485 13.96217194 32.27550485 13.96217194 31 2 C27.15617648 0.07808824 22.41531829 0.81519803 18.1875 0.8125 C17.18912109 0.80025391 16.19074219 0.78800781 15.16210938 0.77539062 C14.19466797 0.77345703 13.22722656 0.77152344 12.23046875 0.76953125 C10.90631958 0.76336792 10.90631958 0.76336792 9.55541992 0.75708008 C6.72651319 1.02599784 4.60620824 1.90327968 2 3 Z " fill="#67909D" transform="translate(139,36)" data-index="18"></path>
<path d="M0 0 C32.34 0 64.68 0 98 0 C98 89.76 98 179.52 98 272 C65.99 272 33.98 272 1 272 C1 282.89 1 293.78 1 305 C33.01 305 65.02 305 98 305 C98 387.83 98 470.66 98 556 C97.67 556 97.34 556 97 556 C97 473.5 97 391 97 306 C64.99 306 32.98 306 0 306 C0 294.45 0 282.9 0 271 C2.87259521 270.97494385 5.74519043 270.9498877 8.70483398 270.92407227 C18.17245759 270.84077353 27.64002486 270.75206545 37.10757351 270.66066074 C42.8504229 270.60538387 48.59327733 270.5519564 54.33618164 270.50268555 C59.8734452 270.4551121 65.41064467 270.40277211 70.94783211 270.34705925 C73.06542436 270.32660378 75.18303422 270.30789611 77.30065727 270.29092598 C80.25576039 270.26695237 83.21074114 270.23688857 86.16577148 270.20532227 C87.05049637 270.1995668 87.93522125 270.19381134 88.84675598 270.18788147 C92.73699879 270.52196848 92.73699879 270.52196848 96 269 C96.09662242 267.56649935 96.12371827 266.12824998 96.12304783 264.69149685 C96.12503888 263.75595579 96.12702993 262.82041472 96.12908131 261.85652393 C96.12616847 260.81666263 96.12325563 259.77680133 96.12025452 258.70542908 C96.12110894 257.61018262 96.12196337 256.51493616 96.12284368 255.38650042 C96.12450171 251.68595477 96.11897186 247.98545363 96.11352539 244.28491211 C96.11324356 241.64440305 96.11335705 239.00389678 96.1139679 236.36338806 C96.11449332 230.66284149 96.1113446 224.96230632 96.10573006 219.26176262 C96.09761754 211.01964187 96.09500009 202.77752667 96.09374207 194.53540237 C96.09155115 181.16446759 96.08489001 167.79353889 96.07543945 154.42260742 C96.06626635 141.43074575 96.05918502 128.43888574 96.05493164 115.44702148 C96.05453756 114.24664335 96.05453756 114.24664335 96.05413551 113.02201515 C96.05283051 109.0075547 96.05156679 104.99309423 96.05032361 100.97863376 C96.03994977 67.65241712 96.02151082 34.32621178 96 1 C64.32 1 32.64 1 0 1 C0 0.67 0 0.34 0 0 Z " fill="#E1F7F6" transform="translate(41,211)" data-index="19"></path>
<path d="M0 0 C0.33 0 0.66 0 1 0 C1.79577955 21.17957135 2.14309148 42.32136719 2.10139394 63.51467896 C2.09497606 67.3528829 2.09454251 71.1910884 2.09336853 75.02929688 C2.09030786 82.2389297 2.08216858 89.44854665 2.07201904 96.65817261 C2.0606904 104.89092027 2.05530606 113.12366886 2.05032361 121.35642242 C2.039979 138.2376256 2.02170248 155.11880702 2 172 C11.57 171.67 21.14 171.34 31 171 C31.495 102.69 31.495 102.69 32 33 C32.33 33 32.66 33 33 33 C33 79.53 33 126.06 33 174 C22.11 174 11.22 174 0 174 C0 127.47 0 80.94 0 33 C-32.01 33 -64.02 33 -97 33 C-97 32.67 -97 32.34 -97 32 C-64.99 32 -32.98 32 0 32 C0 21.44 0 10.88 0 0 Z " fill="#5F8695" transform="translate(139,768)" data-index="20"></path>
<path d="M0 0 C0 122.76 0 245.52 0 372 C-1.98 372.66 -3.96 373.32 -6 374 C-6 373.34 -6 372.68 -6 372 C-4.68 371.34 -3.36 370.68 -2 370 C-2 248.56 -2 127.12 -2 2 C-2.99 1.67 -3.98 1.34 -5 1 C-2 0 -2 0 0 0 Z " fill="#E6FBEC" transform="translate(701,268)" data-index="21"></path>
<path d="M0 0 C0.66 0.33 1.32 0.66 2 1 C0.53732224 1.79372654 0.53732224 1.79372654 -0.95490456 2.60348797 C-3.33663777 4.62044097 -3.94907223 5.74178291 -4.56050944 8.84192908 C-4.75974771 12.68239954 -4.77112006 16.50109475 -4.7215271 20.3441925 C-4.72414352 21.84169218 -4.72939696 23.33918919 -4.7370621 24.83667153 C-4.75049091 28.95309589 -4.726463 33.0685852 -4.69639373 37.18489039 C-4.67050779 41.62315326 -4.67924942 46.06136245 -4.68380737 50.49967957 C-4.68695508 58.18977182 -4.66811375 65.87955887 -4.63438034 73.56957436 C-4.58563931 84.68802239 -4.56999385 95.80632269 -4.56245239 106.92486598 C-4.54931726 124.96342207 -4.5093785 143.00181547 -4.45263672 161.0402832 C-4.3975713 178.56403794 -4.35509647 196.08774849 -4.32958984 213.61157227 C-4.3280135 214.69155105 -4.32643716 215.77152983 -4.32481305 216.88423524 C-4.31698289 222.30211558 -4.30940062 227.71999624 -4.30194163 233.13787711 C-4.23973082 278.09203078 -4.1340427 323.046007 -4 368 C-3.01 368.33 -2.02 368.66 -1 369 C-2.65 369.33 -4.3 369.66 -6 370 C-6 248.89 -6 127.78 -6 3 C-4.02 2.01 -2.04 1.02 0 0 Z " fill="#EEFDFD" transform="translate(524,341)" data-index="22"></path>
<path d="M0 0 C10.56 0 21.12 0 32 0 C32 0.33 32 0.66 32 1 C31.12674072 1.02505615 30.25348145 1.0501123 29.35375977 1.07592773 C26.12397448 1.17087709 22.89435846 1.27012029 19.66479492 1.37231445 C18.26510801 1.41571434 16.86536641 1.45738564 15.46557617 1.49731445 C13.45738505 1.55489445 11.44938851 1.61914 9.44140625 1.68359375 C8.23170166 1.72025146 7.02199707 1.75690918 5.77563477 1.79467773 C3.09294544 1.68938266 3.09294544 1.68938266 2 3 C1.88987268 5.51635788 1.84503931 8.00586207 1.84178162 10.52320862 C1.83684364 11.32035575 1.83190566 12.11750289 1.82681805 12.938806 C1.81136573 15.63050712 1.80306163 18.32218426 1.79467773 21.01391602 C1.78510528 22.93522353 1.77509558 24.85652891 1.76467896 26.77783203 C1.73755527 32.01106339 1.71658625 37.24430384 1.69667697 42.47756696 C1.67486328 47.94021606 1.64745208 53.40283691 1.62062073 58.86546326 C1.5706312 69.21750177 1.52571568 79.56955591 1.48259836 89.92162508 C1.43327937 101.70378857 1.37834151 113.48592373 1.32291877 125.26805985 C1.20900266 149.51201349 1.1021847 173.75599428 1 198 C0.67 198 0.34 198 0 198 C0 132.66 0 67.32 0 0 Z " fill="#223C49" transform="translate(212,282)" data-index="23"></path>
<path d="M0 0 C31.68 0 63.36 0 96 0 C96 0.33 96 0.66 96 1 C49.965 1.495 49.965 1.495 3 2 C0.73489096 11.06043615 2 20.66071618 2 30 C48.53 30.495 48.53 30.495 96 31 C96 31.33 96 31.66 96 32 C64.32 32 32.64 32 0 32 C0 21.44 0 10.88 0 0 Z " fill="#1E3945" transform="translate(42,768)" data-index="24"></path>
<path d="M0 0 C2.475 0.99 2.475 0.99 5 2 C4.01 2.66 3.02 3.32 2 4 C1.55479166 6.46351829 1.55479166 6.46351829 1.64596558 9.38963318 C1.64328674 10.53449188 1.64060791 11.67935059 1.6378479 12.85890198 C1.65020477 14.12161423 1.66256165 15.38432648 1.67529297 16.68530273 C1.67777572 18.02420883 1.67892343 19.36311797 1.67883301 20.70202637 C1.68154436 23.59244068 1.69380416 26.48260448 1.71337509 29.37295341 C1.74442008 33.96120772 1.75467928 38.54936615 1.76223755 43.13771057 C1.77675493 50.41785101 1.80568559 57.69785439 1.84048474 64.97792345 C1.90209099 77.95124844 1.94030198 90.92464959 1.97207749 103.8980785 C1.98377232 108.43951652 2.00199372 112.98086786 2.02547038 117.52225953 C2.09945791 132.37722123 2.07350173 147.17596867 1 162 C0.67 162 0.34 162 0 162 C0 108.54 0 55.08 0 0 Z " fill="#87B0AB" transform="translate(269,217)" data-index="25"></path>
<path d="M0 0 C1.32 0 2.64 0 4 0 C4 10.56 4 21.12 4 32 C-16.13 32 -36.26 32 -57 32 C-57 31.67 -57 31.34 -57 31 C-37.86 31 -18.72 31 1 31 C1.33 21.1 1.66 11.2 2 1 C1.34 0.67 0.68 0.34 0 0 Z " fill="#89B092" transform="translate(135,179)" data-index="26"></path>
<path d="M0 0 C4.33311515 0.41664569 8.03536259 1.19789209 12 3 C12 3.33 12 3.66 12 4 C4.26291674 4.12152487 -3.307359 3.84800767 -11 3 C-11 2.67 -11 2.34 -11 2 C-10.28972656 1.93941406 -9.57945312 1.87882813 -8.84765625 1.81640625 C-7.46900391 1.69072266 -7.46900391 1.69072266 -6.0625 1.5625 C-5.14597656 1.48128906 -4.22945313 1.40007813 -3.28515625 1.31640625 C-1.03840268 1.23955024 -1.03840268 1.23955024 0 0 Z " fill="#3F5C64" transform="translate(479,746)" data-index="27"></path>
<path d="M0 0 C0 0.33 0 0.66 0 1 C-3.66537743 1.36843176 -7.33238356 1.71712907 -11 2.0625 C-12.02996094 2.16626953 -13.05992187 2.27003906 -14.12109375 2.37695312 C-19.97196087 2.91731983 -25.20395683 2.99619492 -31 2 C-31 1.67 -31 1.34 -31 1 C-20.69339617 -0.32378398 -10.36776236 -0.09139066 0 0 Z " fill="#38515B" transform="translate(713,702)" data-index="28"></path>
<path d="M0 0 C-0.66 0.66 -1.32 1.32 -2 2 C-0.68 2.66 0.64 3.32 2 4 C-3.72040011 4.8320582 -9.22240116 5.12036664 -15 5 C-11.55014028 1.85012808 -4.53875449 -2.26937725 0 0 Z " fill="#E8F7F7" transform="translate(633,704)" data-index="29"></path>
<path d="M0 0 C-0.763125 0.28875 -1.52625 0.5775 -2.3125 0.875 C-5.15029308 1.96269013 -5.15029308 1.96269013 -8 4 C-10.04296875 4.1953125 -10.04296875 4.1953125 -12.1875 4.125 C-14.0746875 4.063125 -14.0746875 4.063125 -16 4 C-13.41588269 2.27725513 -11.45097344 1.31104478 -8.5625 0.3125 C-7.41974609 -0.09548828 -7.41974609 -0.09548828 -6.25390625 -0.51171875 C-3.78170279 -1.04729142 -2.37016716 -0.80445309 0 0 Z " fill="#365C64" transform="translate(522,747)" data-index="30"></path>
<path d="M0 0 C0.66 0.99 1.32 1.98 2 3 C-1.96 3 -5.92 3 -10 3 C-10 2.34 -10 1.68 -10 1 C-6.61045199 -0.04293785 -3.53672026 -0.30754089 0 0 Z " fill="#7A9FA4" transform="translate(505,749)" data-index="31"></path>
<path d="M0 0 C4.61691161 0.52464905 6.09987886 1.07490914 10 4 C5.71 4 1.42 4 -3 4 C-3 3.67 -3 3.34 -3 3 C-1.35 3 0.3 3 2 3 C2 2.34 2 1.68 2 1 C1.34 0.67 0.68 0.34 0 0 Z " fill="#DEF1F3" transform="translate(374,705)" data-index="32"></path>
<path d="M0 0 C0.66 0.33 1.32 0.66 2 1 C2 1.99 2 2.98 2 4 C-0.97 4 -3.94 4 -7 4 C-4.61426621 2.10786631 -2.92824652 0.97608217 0 0 Z " fill="#D4EDEC" transform="translate(625,705)" data-index="33"></path>
<path d="M0 0 C-0.33 0.99 -0.66 1.98 -1 3 C-4.45689963 4.21631654 -7.32831864 5 -11 5 C-7.72709962 2.33319229 -4.35126896 0 0 0 Z " fill="#DEF1E7" transform="translate(592,313)" data-index="34"></path>
<path d="M0 0 C0.33 0 0.66 0 1 0 C1 2.64 1 5.28 1 8 C-0.98 7.34 -2.96 6.68 -5 6 C-3.68 5.67 -2.36 5.34 -1 5 C-0.67 3.35 -0.34 1.7 0 0 Z " fill="#8FB6B3" transform="translate(347,278)" data-index="35"></path>
</svg>