<?xml version="1.0" encoding="utf-8" ?><svg xmlns="http://www.w3.org/2000/svg" xmlns:xlink="http://www.w3.org/1999/xlink" width="2388" height="2275" viewBox="0 0 2388 2275"><path fill="#022464" transform="scale(0.778208 0.778208)" d="M1552.58 1806.02C1463.03 1916.96 1369.57 2027.51 1222.32 2067.98C1114.7 2097.55 990.889 2080.33 893.347 2028.78C782.286 1970.14 700.419 1871.63 665.955 1755.16C629.563 1633.86 643.048 1510.82 707.609 1400.31C748.652 1330.05 803.57 1267.43 856.407 1205.09L979.129 1057.28C1029.88 995.074 1081.09 933.203 1132.75 871.674C1166.33 830.977 1198.33 787.237 1236.65 750.483C1253.83 734.017 1274 719.147 1297.93 713.103C1328.2 705.459 1362.5 710.286 1389.48 725.209C1418.12 741.055 1438.3 768.963 1446.65 799.222C1456.12 833.569 1448.84 869.178 1432.45 900.513C1417.98 928.192 1394.64 953.092 1374.06 976.791C1356.38 997.173 1338.87 1017.69 1321.53 1038.33L1097.45 1307.28L1012.59 1407.17C987.398 1437.18 961.568 1467.74 941.28 1501.05C908.204 1555.35 894.228 1616.81 911.761 1678.33C926.307 1729.38 960.385 1775.52 1009.18 1801.75C1054.31 1826 1111.86 1834.54 1162 1820.93C1182.49 1815.51 1201.65 1806.3 1218.4 1793.82C1269.69 1756.39 1310.96 1700.63 1349.11 1651.42C1361.78 1635.07 1376.02 1618.23 1386.3 1600.41C1386.57 1599.94 1386.83 1599.46 1387.1 1598.99C1389.82 1615.36 1469.68 1703.67 1483.83 1721.26C1506.42 1749.32 1526.86 1780.54 1552.58 1806.02Z"/><path fill="#2EB0A9" transform="scale(0.778208 0.778208)" d="M2027.69 1336.86C2058.66 1295.75 2092.27 1257.17 2124.77 1217.24C2143.97 1193.64 2161.7 1167.96 2181.76 1145.2C2184.4 1142.2 2186 1139.99 2189.98 1138.93C2195.2 1141.21 2198.87 1144.45 2202.78 1148.38C2229.07 1174.84 2250.57 1206.18 2274.21 1234.79C2312.02 1280.54 2352.2 1325.9 2384.45 1375.5C2403.39 1404.63 2420.46 1436.59 2433.03 1468.7C2478.73 1585.43 2468.64 1718.84 2414.11 1831.16C2364.14 1934.08 2271.69 2019.72 2159.33 2058.63C2049.82 2096.56 1920.83 2093.25 1815.09 2045.67C1723.93 2004.65 1666.28 1943.16 1606.83 1868.19C1590.61 1847.73 1574.28 1821.42 1552.58 1806.02C1526.86 1780.54 1506.42 1749.32 1483.83 1721.26C1469.68 1703.67 1389.82 1615.36 1387.1 1598.99C1360.14 1562.5 1335.52 1522.03 1344.09 1475.72C1350.09 1443.25 1367.01 1413.8 1395.71 1394.82C1421.75 1377.6 1458.74 1369.34 1489.98 1375.04C1511.9 1379.04 1534.43 1389.78 1551.43 1403.5C1573.82 1421.57 1591.92 1445.14 1609.94 1467.05C1634.87 1497.44 1659.41 1528.11 1683.55 1559.08C1711.23 1594.04 1740.63 1627.76 1768.49 1662.61C1830.94 1740.76 1898.22 1836.73 2015.84 1826.8C2049.27 1823.98 2081.46 1813.36 2109.57 1795.89C2156.45 1766.35 2188.82 1722.36 2199.89 1669.74C2213.96 1602.87 2190.41 1541.95 2151.56 1486.79C2114.17 1433.7 2067.53 1387.98 2027.69 1336.86Z"/><path fill="#022464" transform="scale(0.778208 0.778208)" d="M1550.98 352.446C1634.08 267.174 1746.8 222.082 1868.28 217.672C1983.95 213.483 2096.64 253.168 2181.66 328.03C2278.73 414.535 2336.69 541.866 2340.48 668.175C2342.85 737.876 2327.89 807.124 2296.82 870.262C2252.38 961.89 2180.49 1039.56 2115.05 1117.97L1870.52 1413.57C1851.4 1437.11 1832.05 1460.49 1812.49 1483.69C1801.71 1496.26 1789.23 1508.45 1779.44 1521.64C1719.93 1479.91 1672.51 1425.81 1661.47 1353.98C1652.34 1294.65 1681.96 1245.63 1718.12 1199.9C1748.12 1161.96 1781.59 1126.55 1812.49 1089.26C1852.27 1041.23 1889.66 991.395 1929.65 943.546C1977.3 886.544 2036.81 829.644 2068.09 762.341C2084.39 727.262 2089.38 689.806 2084.03 651.788C2076.32 597.081 2045.85 542.245 1999.22 508.804C1958.35 479.487 1901.81 464.267 1850.97 471.299C1793.49 479.249 1749.52 514.756 1708.68 551.411C1704.14 525.5 1576.74 388.717 1550.98 352.446Z"/><path fill="#1A60A7" transform="scale(0.778208 0.778208)" d="M910.349 1028.81C876.238 997.953 838.874 944.794 816.296 905.061C757.055 800.804 748.546 663.968 784.001 550.74C819.681 436.797 901.101 333.731 1011.63 276.822C1150.51 205.314 1332.16 206.543 1464.77 291.09C1476.08 298.3 1544.27 351.35 1549.29 352.338C1549.85 352.447 1550.42 352.41 1550.98 352.446C1576.74 388.717 1704.14 525.5 1708.68 551.411C1708.58 554.543 1709.45 556.134 1711.16 558.703C1726.97 582.465 1750.82 608.632 1769.14 631.55L1869.49 757.354C1889.23 781.655 1910.12 805.107 1929.22 829.877C1907.97 858.52 1883.29 885.326 1860.85 913.182C1830.43 950.952 1801.62 990.136 1769.51 1026.63C1736 996.668 1704.65 949.951 1676.73 914.29C1618.8 840.295 1558.06 768.25 1499.26 694.882C1455.96 640.868 1415.48 579.557 1362.73 533.549C1338.01 511.995 1310.25 495.536 1277.71 487.13C1224.46 473.371 1169.37 481.109 1121.73 507.43C1073.47 534.371 1038.61 578.686 1025 630.393C1005 704.213 1034.75 769.298 1073.69 831.969C1052.51 860.27 1028.29 887.259 1006.09 914.926C975.565 952.958 945.348 994.494 910.349 1028.81Z"/><path fill="#2EB0A9" transform="scale(0.778208 0.778208)" d="M1334.38 1134.28L1339.01 1135.94C1360.51 1158.21 1366.08 1198.13 1367.98 1227.05C1373.41 1309.66 1329.5 1397.37 1272.99 1458.67C1262.91 1448.74 1253.95 1437.54 1244.71 1426.89C1219.59 1397.06 1193.81 1367.2 1173.05 1334.38C1190.87 1304 1216.88 1275.85 1239.27 1248.34C1270.43 1210.07 1300.97 1170.78 1334.38 1134.28Z"/></svg>